<svg version="1.1" id="Layer_1" xmlns="http://www.w3.org/2000/svg" xmlns:xlink="http://www.w3.org/1999/xlink" x="0px" y="0px" width="290" viewBox="0 0 290 251" enable-background="new 0 0 290 251" xml:space="preserve" height="251">
<path fill="#1A1F25" opacity="1.000000" stroke="none" d="
M172.000000,252.000000 
	C114.666672,252.000000 57.833347,252.000000 1.000015,252.000000 
	C1.000010,168.333344 1.000010,84.666702 1.000005,1.000038 
	C97.666634,1.000025 194.333267,1.000025 290.999939,1.000013 
	C290.999939,84.666626 290.999939,168.333252 290.999969,251.999939 
	C251.500000,252.000000 212.000000,252.000000 172.000000,252.000000 
M80.449341,216.753265 
	C80.637093,216.469116 80.824844,216.184982 81.633377,215.399933 
	C81.635971,212.736115 83.969383,208.548019 79.392792,208.264709 
	C70.038643,207.685638 60.623554,208.091141 51.016399,208.091141 
	C51.016399,221.765732 51.016399,234.856506 51.221550,248.730759 
	C51.716621,249.117569 52.208187,249.836594 52.707287,249.841858 
	C61.687012,249.936646 70.668297,249.996521 79.646927,249.882217 
	C80.429375,249.872269 81.195686,248.595078 82.023026,247.079254 
	C81.688065,244.792236 81.353104,242.505219 80.460472,239.586304 
	C75.635132,239.792572 70.809784,239.998825 65.201599,240.420959 
	C64.128288,240.353806 63.054974,240.286667 61.972080,239.301193 
	C61.156548,234.365494 62.953835,232.135803 68.182785,232.923325 
	C70.459885,233.266296 72.866890,233.225998 75.146339,232.891968 
	C76.484787,232.695831 77.688461,231.580017 78.893906,230.058228 
	C78.890808,228.147049 78.887703,226.235886 78.956261,223.497116 
	C79.308624,221.340958 79.660988,219.184784 80.449341,216.753265 
M169.273422,240.776337 
	C167.934814,240.718201 166.234314,240.098068 165.314575,240.690353 
	C157.577576,245.672775 148.816788,244.940308 143.198090,238.599182 
	C138.180984,232.937027 138.029922,223.430115 142.865570,217.672318 
	C147.375580,212.302261 158.586472,210.628372 164.733505,214.857498 
	C167.598648,216.828720 168.618484,215.699081 170.059921,213.287033 
	C162.917511,206.952744 154.924149,206.226624 146.642136,209.297302 
	C138.695160,212.243729 134.525681,218.585373 134.279678,226.961578 
	C134.018066,235.868988 137.909378,242.681870 146.201920,246.567123 
	C152.274124,249.412094 158.443588,248.812424 165.495575,246.936630 
	C167.994644,247.291840 170.493713,247.647049 173.802780,248.048111 
	C175.410675,247.283386 178.139511,246.822083 178.442139,245.704041 
	C180.226349,239.112473 184.647354,238.008408 190.535553,238.732208 
	C193.324310,239.075012 196.239075,239.097061 199.013443,238.692749 
	C203.519226,238.036118 206.156509,239.541534 207.184494,244.057877 
	C207.972015,247.517776 210.028763,249.074432 213.694351,247.512054 
	C213.480331,246.875504 213.321381,246.228836 213.053299,245.631134 
	C207.954742,234.264130 202.934708,222.859894 197.627426,211.590973 
	C196.904419,210.055847 194.721970,208.276901 193.234772,208.294144 
	C191.740692,208.311462 189.638016,210.128677 188.893402,211.680710 
	C184.082809,221.707748 179.570969,231.878128 174.212143,241.980835 
	C172.760864,241.670425 171.309601,241.360016 169.273422,240.776337 
M285.032257,247.051147 
	C285.519257,244.392670 284.356201,243.657944 281.769592,243.716904 
	C274.864655,243.874268 267.953766,243.770462 261.173370,243.770462 
	C261.173370,238.714386 261.173370,234.306259 261.173370,229.730270 
	C267.150055,229.730270 272.795502,229.641556 278.436249,229.765900 
	C281.473694,229.832870 282.384827,228.749695 281.060181,225.494659 
	C274.566010,225.494659 267.981598,225.494659 261.200867,225.494659 
	C261.200867,220.838593 261.200867,216.645905 261.200867,212.046890 
	C268.947357,212.046890 276.364960,212.046890 283.782593,212.046890 
	C284.056335,211.617340 284.330078,211.187775 284.603821,210.758224 
	C283.573547,209.855469 282.562531,208.196442 281.509949,208.169632 
	C273.090759,207.955429 264.663727,208.049988 256.021515,208.049988 
	C256.021515,221.714142 256.021515,234.823227 256.214752,248.720978 
	C256.706696,249.110962 257.194763,249.835342 257.691162,249.841095 
	C265.996979,249.937607 274.304657,249.999619 282.609253,249.882584 
	C283.410034,249.871292 284.193390,248.624680 285.032257,247.051147 
M8.263802,208.236923 
	C7.848635,209.054245 7.078734,209.868713 7.072129,210.689316 
	C6.988445,221.087021 6.965605,231.486160 7.083468,241.883163 
	C7.096176,243.004135 8.088037,244.114014 8.830047,245.964676 
	C11.174820,250.728806 14.931616,246.857544 18.286465,248.117767 
	C18.286465,244.073151 18.286465,240.680832 18.286465,237.011093 
	C22.317097,238.737122 27.526043,235.592392 29.850760,241.344238 
	C32.388790,247.623871 37.208092,249.538513 43.630413,247.634796 
	C43.571560,247.337509 43.594116,246.987885 43.441692,246.750748 
	C41.016823,242.977661 38.569538,239.219009 36.122963,235.450256 
	C42.849625,229.586777 45.003494,223.695724 42.736839,217.280457 
	C40.637566,211.338943 34.954983,208.176544 26.018278,208.068085 
	C20.359444,207.999374 14.699431,208.027649 8.263802,208.236923 
M88.607887,92.487312 
	C95.416115,92.287010 102.224350,92.086708 109.769363,91.861534 
	C116.974007,94.664268 120.221916,99.413872 119.382767,106.802979 
	C117.877075,120.061378 107.223816,119.064934 97.342758,119.913696 
	C104.691055,132.035263 111.712593,143.677475 118.843254,155.252472 
	C119.344078,156.065460 120.629234,156.802658 121.587898,156.853455 
	C125.147484,157.042068 128.723068,156.928650 133.004044,156.928650 
	C127.164284,147.274750 121.779022,138.372192 116.265099,129.256943 
	C117.137306,128.694855 117.796692,128.246201 118.478264,127.834236 
	C128.811356,121.588562 133.689499,109.864944 130.606140,98.674164 
	C127.501617,87.406570 118.072189,80.175392 105.858154,79.862419 
	C100.697098,79.730164 95.526672,79.778870 90.364494,79.906654 
	C65.378471,80.525139 47.815807,103.852295 54.084614,128.036530 
	C60.502228,152.794861 90.738403,165.667145 111.645561,152.074448 
	C109.673767,148.908676 107.696724,145.734497 105.665749,142.473709 
	C95.930779,147.128113 86.845619,146.995834 77.699173,141.610641 
	C87.105034,126.224815 96.245811,111.272614 105.740746,95.741089 
	C103.199104,95.741089 101.507622,95.977898 99.906044,95.698784 
	C93.988159,94.667427 90.647522,97.198204 87.764275,102.402176 
	C82.306442,112.253036 76.017258,121.643295 70.076645,131.219833 
	C65.345398,128.330017 63.381187,120.223946 65.225517,112.210228 
	C67.675133,101.566498 76.900780,93.347534 88.607887,92.487312 
M131.481796,77.102661 
	C134.634583,77.400223 137.787354,77.697784 141.117020,78.918594 
	C141.052216,110.617188 140.987411,142.315781 140.512726,174.243195 
	C140.269089,174.453125 140.096939,174.710800 139.082230,175.237564 
	C112.387283,175.150879 85.692329,175.064194 58.964504,174.040482 
	C58.883736,173.418594 58.802963,172.796692 58.835754,171.539047 
	C62.067436,166.160294 65.299118,160.781525 68.679619,155.155075 
	C65.667747,152.561127 62.677277,149.985626 59.591976,147.328445 
	C51.592899,160.501190 43.776104,173.373749 35.739601,186.608124 
	C110.106850,186.608124 183.828827,186.608124 257.953064,186.608124 
	C249.868423,173.345291 242.044113,160.509552 234.085648,147.453705 
	C230.891357,150.327896 228.077499,152.859802 225.292999,155.365280 
	C228.949738,161.652740 232.527130,167.803802 235.646759,174.198395 
	C235.431671,174.463043 235.216599,174.727692 234.083130,175.194717 
	C207.388535,175.127472 180.693939,175.060242 153.774414,174.557480 
	C153.568680,174.289551 153.305435,174.102585 152.766296,173.081833 
	C152.752975,165.447723 152.713791,157.813538 152.731140,150.179504 
	C152.785828,126.122406 152.861725,102.065346 153.787979,78.018753 
	C156.184906,77.449890 158.581818,76.881035 161.895782,76.119873 
	C164.560089,76.107643 167.272934,76.412018 169.877853,76.012558 
	C174.323441,75.330826 176.743759,77.229179 178.941635,80.959747 
	C186.198853,93.277817 193.775085,105.408775 201.288406,117.574776 
	C205.526535,124.437370 209.881546,131.227798 214.516403,138.578003 
	C217.402420,135.040924 219.892197,131.989471 222.156754,129.214050 
	C196.862930,88.190735 171.890839,47.689236 146.741333,6.899957 
	C132.526367,30.094791 118.654572,52.729668 104.541069,75.758949 
	C106.786896,75.959961 108.400093,76.104355 110.279869,76.977165 
	C115.247665,78.261154 120.207916,79.373695 125.746727,76.140480 
	C127.548042,76.203438 129.349350,76.266396 131.481796,77.102661 
M193.391586,144.450226 
	C172.789764,136.713562 168.758102,117.926300 183.439011,96.850319 
	C181.568741,93.916611 179.626160,90.869507 177.670532,87.801910 
	C163.189743,98.574997 158.277740,115.524002 164.570053,132.080872 
	C171.349411,149.919281 188.725540,159.962250 208.107986,157.121628 
	C222.234039,155.051376 237.533203,140.748657 238.574982,128.562241 
	C235.736740,128.562241 232.884384,128.285858 230.125000,128.672668 
	C228.626236,128.882782 226.753586,129.875519 225.955948,131.103836 
	C217.992401,143.367142 208.673096,147.452835 193.391586,144.450226 
M104.412750,208.045563 
	C99.335770,208.045563 94.258797,208.045563 89.066429,208.045563 
	C89.066429,220.865005 89.136330,232.980743 89.018448,245.094635 
	C88.988075,248.216293 90.247070,249.233444 93.185692,249.014679 
	C99.571007,248.539307 106.023010,248.588791 112.343300,247.689560 
	C124.649651,245.938644 131.679337,234.762955 128.508652,222.682632 
	C125.944962,212.914886 118.410980,208.147232 104.412750,208.045563 
M236.104858,100.460678 
	C227.849091,85.779068 212.192291,77.560455 197.710648,80.551208 
	C198.923965,82.777374 199.897736,85.062279 201.318619,87.023224 
	C202.599106,88.790421 204.185699,91.290085 205.954468,91.588852 
	C215.030716,93.122025 221.274292,98.159836 225.905212,105.790115 
	C226.531296,106.821709 228.019501,107.819580 229.195343,107.933022 
	C232.289261,108.231537 235.431030,108.033936 239.203873,108.033936 
	C238.140381,105.347649 237.302902,103.232300 236.104858,100.460678 
M225.585190,208.858429 
	C220.673721,210.633621 217.879059,214.037628 218.021927,219.350510 
	C218.172745,224.959793 222.083572,227.383469 226.803192,228.831253 
	C230.063995,229.831512 233.418472,230.524521 236.686661,231.503159 
	C239.919067,232.471100 242.641907,234.202896 242.313797,238.072571 
	C241.968170,242.148651 238.798187,244.026321 235.351974,243.806503 
	C229.899673,243.458679 224.509247,242.140762 218.133453,241.072662 
	C218.386780,241.871628 218.400055,243.930618 219.424118,244.802734 
	C224.515976,249.139053 236.390015,249.730331 242.204300,246.260162 
	C246.028656,243.977646 247.595291,240.548721 247.317703,236.189667 
	C247.053802,232.045303 244.741516,229.383621 240.964676,228.113678 
	C237.195557,226.846313 233.278610,226.022324 229.495361,224.792145 
	C226.130219,223.697906 222.398880,222.415833 223.139816,217.846649 
	C223.840210,213.527313 227.371964,211.835297 231.273697,212.033813 
	C235.562973,212.252029 239.808990,213.320328 244.210876,214.040680 
	C245.525162,210.727554 245.634109,210.036377 242.441422,209.533142 
	C237.151398,208.699326 231.705292,208.855667 225.585190,208.858429 
z"></path>
<path fill="#F7F7F7" opacity="1.000000" stroke="none" d="
M58.997383,174.977524 
	C85.692329,175.064194 112.387283,175.150879 139.839569,175.153259 
	C140.705475,174.717438 140.814026,174.365906 140.922607,174.014374 
	C140.987411,142.315781 141.052216,110.617188 141.098572,78.203583 
	C141.009583,77.328148 140.939026,77.167725 140.866516,76.718712 
	C140.329788,76.391228 139.794998,76.352325 138.876709,76.222939 
	C136.045685,76.198082 133.598175,76.263718 131.150665,76.329353 
	C129.349350,76.266396 127.548042,76.203438 124.907127,76.152672 
	C119.382782,76.192818 114.698044,76.220779 110.013298,76.248741 
	C108.400093,76.104355 106.786896,75.959961 104.541069,75.758949 
	C118.654572,52.729668 132.526367,30.094791 146.741333,6.899957 
	C171.890839,47.689236 196.862930,88.190735 222.156754,129.214050 
	C219.892197,131.989471 217.402420,135.040924 214.516403,138.578003 
	C209.881546,131.227798 205.526535,124.437370 201.288406,117.574776 
	C193.775085,105.408775 186.198853,93.277817 178.941635,80.959747 
	C176.743759,77.229179 174.323441,75.330826 169.877853,76.012558 
	C167.272934,76.412018 164.560089,76.107643 161.006317,76.138138 
	C158.076797,76.201569 156.036743,76.246742 153.732086,76.215515 
	C153.320007,76.426056 153.172546,76.713005 152.892166,77.241699 
	C152.815979,77.658386 152.872696,77.833336 152.929398,78.008278 
	C152.861725,102.065346 152.785828,126.122406 152.731140,150.179504 
	C152.713791,157.813538 152.752975,165.447723 152.847900,173.849655 
	C153.286118,174.742661 153.642731,174.867828 153.999344,174.992996 
	C180.693939,175.060242 207.388535,175.127472 234.812927,175.178238 
	C235.729965,174.759445 235.917236,174.357147 236.104507,173.954849 
	C232.527130,167.803802 228.949738,161.652740 225.292999,155.365280 
	C228.077499,152.859802 230.891357,150.327896 234.085648,147.453705 
	C242.044113,160.509552 249.868423,173.345291 257.953064,186.608124 
	C183.828827,186.608124 110.106850,186.608124 35.739601,186.608124 
	C43.776104,173.373749 51.592899,160.501190 59.591976,147.328445 
	C62.677277,149.985626 65.667747,152.561127 68.679619,155.155075 
	C65.299118,160.781525 62.067436,166.160294 58.492271,172.091309 
	C57.839752,173.344620 57.530716,174.045685 57.221672,174.746750 
	C57.813576,174.823669 58.405479,174.900604 58.997383,174.977524 
M153.109085,39.311333 
	C151.082397,36.020920 149.055710,32.730507 146.650726,28.825920 
	C143.480530,34.339432 140.709198,39.159229 137.375504,44.365341 
	C133.682724,50.436478 129.989944,56.507614 126.203575,62.732601 
	C131.064392,66.649879 135.895233,62.408493 140.036148,63.090580 
	C142.257019,58.686295 144.226257,54.781006 146.553101,50.166565 
	C148.600601,53.711227 151.089661,56.382736 151.706116,59.432732 
	C152.941330,65.544167 157.144547,64.646210 161.178574,64.366577 
	C163.081528,64.234657 164.938522,63.439625 167.568710,62.746906 
	C162.742264,55.043594 158.032410,47.526363 153.109085,39.311333 
z"></path>
<path fill="#F9F9FA" opacity="1.000000" stroke="none" d="
M87.980797,91.937943 
	C76.900780,93.347534 67.675133,101.566498 65.225517,112.210228 
	C63.381187,120.223946 65.345398,128.330017 70.076645,131.219833 
	C76.017258,121.643295 82.306442,112.253036 87.764275,102.402176 
	C90.647522,97.198204 93.988159,94.667427 99.906044,95.698784 
	C101.507622,95.977898 103.199104,95.741089 105.740746,95.741089 
	C96.245811,111.272614 87.105034,126.224815 77.699173,141.610641 
	C86.845619,146.995834 95.930779,147.128113 105.665749,142.473709 
	C107.696724,145.734497 109.673767,148.908676 111.645561,152.074448 
	C90.738403,165.667145 60.502228,152.794861 54.084614,128.036530 
	C47.815807,103.852295 65.378471,80.525139 90.364494,79.906654 
	C95.526672,79.778870 100.697098,79.730164 105.858154,79.862419 
	C118.072189,80.175392 127.501617,87.406570 130.606140,98.674164 
	C133.689499,109.864944 128.811356,121.588562 118.478264,127.834236 
	C117.796692,128.246201 117.137306,128.694855 116.265099,129.256943 
	C121.779022,138.372192 127.164284,147.274750 133.004044,156.928650 
	C128.723068,156.928650 125.147484,157.042068 121.587898,156.853455 
	C120.629234,156.802658 119.344078,156.065460 118.843254,155.252472 
	C111.712593,143.677475 104.691055,132.035263 97.342758,119.913696 
	C107.223816,119.064934 117.877075,120.061378 119.382767,106.802979 
	C120.221916,99.413872 116.974007,94.664268 109.036110,91.677704 
	C101.528839,91.641891 94.754814,91.789917 87.980797,91.937943 
z"></path>
<path fill="#F9F9F9" opacity="1.000000" stroke="none" d="
M193.764099,144.609100 
	C208.673096,147.452835 217.992401,143.367142 225.955948,131.103836 
	C226.753586,129.875519 228.626236,128.882782 230.125000,128.672668 
	C232.884384,128.285858 235.736740,128.562241 238.574982,128.562241 
	C237.533203,140.748657 222.234039,155.051376 208.107986,157.121628 
	C188.725540,159.962250 171.349411,149.919281 164.570053,132.080872 
	C158.277740,115.524002 163.189743,98.574997 177.670532,87.801910 
	C179.626160,90.869507 181.568741,93.916611 183.439011,96.850319 
	C168.758102,117.926300 172.789764,136.713562 193.764099,144.609100 
z"></path>
<path fill="#F6F7F7" opacity="1.000000" stroke="none" d="
M104.895142,208.045166 
	C118.410980,208.147232 125.944962,212.914886 128.508652,222.682632 
	C131.679337,234.762955 124.649651,245.938644 112.343300,247.689560 
	C106.023010,248.588791 99.571007,248.539307 93.185692,249.014679 
	C90.247070,249.233444 88.988075,248.216293 89.018448,245.094635 
	C89.136330,232.980743 89.066429,220.865005 89.066429,208.045563 
	C94.258797,208.045563 99.335770,208.045563 104.895142,208.045166 
M98.665016,219.932175 
	C98.710320,226.272400 98.755623,232.612640 98.766418,239.629349 
	C99.175491,239.742661 99.584564,239.855972 100.896080,240.164764 
	C103.866096,240.114746 106.860634,240.286667 109.800270,239.961761 
	C114.025749,239.494736 117.349525,237.329102 118.766159,233.202164 
	C122.156395,223.325699 116.942879,216.091919 106.417511,215.876602 
	C104.279060,215.832840 102.136650,215.982941 99.206566,216.078171 
	C99.109085,217.061356 99.011604,218.044540 98.665016,219.932175 
z"></path>
<path fill="#F8F9F9" opacity="1.000000" stroke="none" d="
M9.039947,208.012421 
	C14.699431,208.027649 20.359444,207.999374 26.018278,208.068085 
	C34.954983,208.176544 40.637566,211.338943 42.736839,217.280457 
	C45.003494,223.695724 42.849625,229.586777 36.122963,235.450256 
	C38.569538,239.219009 41.016823,242.977661 43.441692,246.750748 
	C43.594116,246.987885 43.571560,247.337509 43.628098,247.637756 
	C37.208092,249.538513 32.388790,247.623871 29.850760,241.344238 
	C27.526043,235.592392 22.317097,238.737122 18.286465,237.011093 
	C18.286465,240.680832 18.286465,244.073151 18.286465,248.117767 
	C14.931616,246.857544 11.174820,250.728806 8.815674,245.184662 
	C8.880849,232.273895 8.960398,220.143158 9.039947,208.012421 
M32.010612,217.986923 
	C32.010612,217.986923 32.114155,217.917267 31.857643,217.330673 
	C30.902111,216.936523 29.946579,216.542374 28.123409,215.893280 
	C25.413654,215.902771 22.703899,215.912247 19.126043,215.864090 
	C18.945017,220.134918 18.758556,224.405579 18.642374,228.678177 
	C18.640860,228.733871 19.532789,228.813858 20.749832,229.004105 
	C21.497181,228.956619 22.244530,228.909149 23.800793,229.032440 
	C25.876301,228.711945 27.951809,228.391434 30.629044,228.042343 
	C31.077568,227.670761 31.526093,227.299179 32.554802,226.711517 
	C32.974251,225.803955 33.393700,224.896393 34.032017,223.260605 
	C33.958805,222.510895 33.885593,221.761185 33.856201,220.378250 
	C33.265106,219.547226 32.674007,218.716202 32.010612,217.986923 
z"></path>
<path fill="#F5F6F6" opacity="1.000000" stroke="none" d="
M81.018150,240.218201 
	C81.353104,242.505219 81.688065,244.792236 81.533142,247.554657 
	C71.034302,248.002457 61.025349,247.974869 51.016399,247.947296 
	C51.016399,234.856506 51.016399,221.765732 51.016399,208.091141 
	C60.623554,208.091141 70.038643,207.685638 79.392792,208.264709 
	C83.969383,208.548019 81.635971,212.736115 81.068443,215.556702 
	C80.334686,215.778244 80.165863,215.843033 79.538773,215.806366 
	C73.388046,215.776016 67.695595,215.847122 61.577194,215.880493 
	C60.719902,218.410095 60.288555,220.977417 59.801456,223.876587 
	C65.114021,223.876587 69.555084,223.876587 74.398239,223.961395 
	C76.161758,224.139038 77.523186,224.231873 78.884605,224.324707 
	C78.887703,226.235886 78.890808,228.147049 78.481163,230.627472 
	C72.183800,231.196701 66.299171,231.196701 59.042347,231.196701 
	C60.238701,234.869156 61.110180,237.544342 61.981659,240.219528 
	C63.054974,240.286667 64.128288,240.353806 66.047409,240.432281 
	C71.601524,240.368484 76.309837,240.293350 81.018150,240.218201 
z"></path>
<path fill="#ECEEEE" opacity="1.000000" stroke="none" d="
M174.961121,242.001495 
	C179.570969,231.878128 184.082809,221.707748 188.893402,211.680710 
	C189.638016,210.128677 191.740692,208.311462 193.234772,208.294144 
	C194.721970,208.276901 196.904419,210.055847 197.627426,211.590973 
	C202.934708,222.859894 207.954742,234.264130 213.053299,245.631134 
	C213.321381,246.228836 213.480331,246.875504 213.694351,247.512054 
	C210.028763,249.074432 207.972015,247.517776 207.184494,244.057877 
	C206.156509,239.541534 203.519226,238.036118 199.013443,238.692749 
	C196.239075,239.097061 193.324310,239.075012 190.535553,238.732208 
	C184.647354,238.008408 180.226349,239.112473 178.442139,245.704041 
	C178.139511,246.822083 175.410675,247.283386 173.377563,247.667343 
	C173.621933,245.524872 174.291534,243.763184 174.961121,242.001495 
M186.986450,233.628326 
	C191.912506,233.628326 196.838562,233.628326 202.507324,233.628326 
	C199.415665,226.533401 196.557281,219.973877 193.320923,212.546906 
	C190.292862,219.554428 187.608231,225.767212 184.511063,232.340210 
	C185.033142,232.713593 185.555222,233.086960 186.986450,233.628326 
z"></path>
<path fill="#F8F8F8" opacity="1.000000" stroke="none" d="
M236.285156,100.788818 
	C237.302902,103.232300 238.140381,105.347649 239.203873,108.033936 
	C235.431030,108.033936 232.289261,108.231537 229.195343,107.933022 
	C228.019501,107.819580 226.531296,106.821709 225.905212,105.790115 
	C221.274292,98.159836 215.030716,93.122025 205.954468,91.588852 
	C204.185699,91.290085 202.599106,88.790421 201.318619,87.023224 
	C199.897736,85.062279 198.923965,82.777374 197.710648,80.551208 
	C212.192291,77.560455 227.849091,85.779068 236.285156,100.788818 
z"></path>
<path fill="#F2F4F4" opacity="1.000000" stroke="none" d="
M256.021515,247.932312 
	C256.021515,234.823227 256.021515,221.714142 256.021515,208.049988 
	C264.663727,208.049988 273.090759,207.955429 281.509949,208.169632 
	C282.562531,208.196442 283.573547,209.855469 284.603821,210.758224 
	C284.330078,211.187775 284.056335,211.617340 283.782593,212.046890 
	C276.364960,212.046890 268.947357,212.046890 261.200867,212.046890 
	C261.200867,216.645905 261.200867,220.838593 261.200867,225.494659 
	C267.981598,225.494659 274.566010,225.494659 281.060181,225.494659 
	C282.384827,228.749695 281.473694,229.832870 278.436249,229.765900 
	C272.795502,229.641556 267.150055,229.730270 261.173370,229.730270 
	C261.173370,234.306259 261.173370,238.714386 261.173370,243.770462 
	C267.953766,243.770462 274.864655,243.874268 281.769592,243.716904 
	C284.356201,243.657944 285.519257,244.392670 284.544495,247.563812 
	C274.711639,248.028427 265.366577,247.980362 256.021515,247.932312 
z"></path>
<path fill="#F2F3F3" opacity="1.000000" stroke="none" d="
M225.955078,208.726654 
	C231.705292,208.855667 237.151398,208.699326 242.441422,209.533142 
	C245.634109,210.036377 245.525162,210.727554 244.210876,214.040680 
	C239.808990,213.320328 235.562973,212.252029 231.273697,212.033813 
	C227.371964,211.835297 223.840210,213.527313 223.139816,217.846649 
	C222.398880,222.415833 226.130219,223.697906 229.495361,224.792145 
	C233.278610,226.022324 237.195557,226.846313 240.964676,228.113678 
	C244.741516,229.383621 247.053802,232.045303 247.317703,236.189667 
	C247.595291,240.548721 246.028656,243.977646 242.204300,246.260162 
	C236.390015,249.730331 224.515976,249.139053 219.424118,244.802734 
	C218.400055,243.930618 218.386780,241.871628 218.133453,241.072662 
	C224.509247,242.140762 229.899673,243.458679 235.351974,243.806503 
	C238.798187,244.026321 241.968170,242.148651 242.313797,238.072571 
	C242.641907,234.202896 239.919067,232.471100 236.686661,231.503159 
	C233.418472,230.524521 230.063995,229.831512 226.803192,228.831253 
	C222.083572,227.383469 218.172745,224.959793 218.021927,219.350510 
	C217.879059,214.037628 220.673721,210.633621 225.955078,208.726654 
z"></path>
<path fill="#F1F2F3" opacity="1.000000" stroke="none" d="
M164.616333,246.876160 
	C158.443588,248.812424 152.274124,249.412094 146.201920,246.567123 
	C137.909378,242.681870 134.018066,235.868988 134.279678,226.961578 
	C134.525681,218.585373 138.695160,212.243729 146.642136,209.297302 
	C154.924149,206.226624 162.917511,206.952744 170.059921,213.287033 
	C168.618484,215.699081 167.598648,216.828720 164.733505,214.857498 
	C158.586472,210.628372 147.375580,212.302261 142.865570,217.672318 
	C138.029922,223.430115 138.180984,232.937027 143.198090,238.599182 
	C148.816788,244.940308 157.577576,245.672775 165.314575,240.690353 
	C166.234314,240.098068 167.934814,240.718201 169.588287,241.256805 
	C168.140884,243.450241 166.378616,245.163208 164.616333,246.876160 
z"></path>
<path fill="#161C22" opacity="1.000000" stroke="none" d="
M62.003147,215.918213 
	C67.695595,215.847122 73.388046,215.776016 79.539719,216.086609 
	C80.003738,216.655090 80.008545,216.841858 80.013344,217.028625 
	C79.660988,219.184784 79.308624,221.340958 78.920433,223.910919 
	C77.523186,224.231873 76.161758,224.139038 74.283493,223.585175 
	C71.934708,222.749771 70.049530,221.896378 68.281029,222.092911 
	C63.411236,222.634079 61.039848,221.091095 62.003147,215.918213 
z"></path>
<path fill="#0D1116" opacity="1.000000" stroke="none" d="
M8.651875,208.124664 
	C8.960398,220.143158 8.880849,232.273895 8.713501,244.816833 
	C8.088037,244.114014 7.096176,243.004135 7.083468,241.883163 
	C6.965605,231.486160 6.988445,221.087021 7.072129,210.689316 
	C7.078734,209.868713 7.848635,209.054245 8.651875,208.124664 
z"></path>
<path fill="#0F1418" opacity="1.000000" stroke="none" d="
M51.118973,248.339020 
	C61.025349,247.974869 71.034302,248.002457 81.506371,247.968292 
	C81.195686,248.595078 80.429375,249.872269 79.646927,249.882217 
	C70.668297,249.996521 61.687012,249.936646 52.707287,249.841858 
	C52.208187,249.836594 51.716621,249.117569 51.118973,248.339020 
z"></path>
<path fill="#0F1418" opacity="1.000000" stroke="none" d="
M256.118134,248.326645 
	C265.366577,247.980362 274.711639,248.028427 284.520752,248.014008 
	C284.193390,248.624680 283.410034,249.871292 282.609253,249.882584 
	C274.304657,249.999619 265.996979,249.937607 257.691162,249.841095 
	C257.194763,249.835342 256.706696,249.110962 256.118134,248.326645 
z"></path>
<path fill="#21262C" opacity="1.000000" stroke="none" d="
M61.976868,239.760361 
	C61.110180,237.544342 60.238701,234.869156 59.042347,231.196701 
	C66.299171,231.196701 72.183800,231.196701 78.510590,231.037292 
	C77.688461,231.580017 76.484787,232.695831 75.146339,232.891968 
	C72.866890,233.225998 70.459885,233.266296 68.182785,232.923325 
	C62.953835,232.135803 61.156548,234.365494 61.976868,239.760361 
z"></path>
<path fill="#2A2D30" opacity="1.000000" stroke="none" d="
M88.294342,92.212631 
	C94.754814,91.789917 101.528839,91.641891 108.667717,91.690140 
	C102.224350,92.086708 95.416115,92.287010 88.294342,92.212631 
z"></path>
<path fill="#14191F" opacity="1.000000" stroke="none" d="
M165.055954,246.906403 
	C166.378616,245.163208 168.140884,243.450241 169.880737,241.393433 
	C171.309601,241.360016 172.760864,241.670425 174.586639,241.991165 
	C174.291534,243.763184 173.621933,245.524872 172.972565,247.644409 
	C170.493713,247.647049 167.994644,247.291840 165.055954,246.906403 
z"></path>
<path fill="#0F1418" opacity="1.000000" stroke="none" d="
M110.146584,76.612953 
	C114.698044,76.220779 119.382782,76.192818 124.526283,76.247108 
	C120.207916,79.373695 115.247665,78.261154 110.146584,76.612953 
z"></path>
<path fill="#0B0E13" opacity="1.000000" stroke="none" d="
M153.996674,76.291916 
	C156.036743,76.246742 158.076797,76.201569 160.547806,76.234283 
	C158.581818,76.881035 156.184906,77.449890 153.358688,78.013519 
	C152.872696,77.833336 152.815979,77.658386 153.092224,77.181831 
	C153.689972,76.756294 153.880463,76.560188 153.996674,76.291916 
z"></path>
<path fill="#21262C" opacity="1.000000" stroke="none" d="
M80.739311,239.902252 
	C76.309837,240.293350 71.601524,240.368484 66.438828,240.324356 
	C70.809784,239.998825 75.635132,239.792572 80.739311,239.902252 
z"></path>
<path fill="#0F1418" opacity="1.000000" stroke="none" d="
M131.316223,76.716003 
	C133.598175,76.263718 136.045685,76.198082 139.259567,76.443222 
	C140.306763,76.838432 140.587601,76.922859 140.868454,77.007294 
	C140.939026,77.167725 141.009583,77.328148 141.010132,77.741959 
	C137.787354,77.697784 134.634583,77.400223 131.316223,76.716003 
z"></path>
<path fill="#080C10" opacity="1.000000" stroke="none" d="
M58.980942,174.509003 
	C58.405479,174.900604 57.813576,174.823669 57.221672,174.746750 
	C57.530716,174.045685 57.839752,173.344620 58.435493,172.409180 
	C58.802963,172.796692 58.883736,173.418594 58.980942,174.509003 
z"></path>
<path fill="#0B0E13" opacity="1.000000" stroke="none" d="
M235.875641,174.076630 
	C235.917236,174.357147 235.729965,174.759445 235.272125,175.077057 
	C235.216599,174.727692 235.431671,174.463043 235.875641,174.076630 
z"></path>
<path fill="#13171C" opacity="1.000000" stroke="none" d="
M80.231339,216.890945 
	C80.008545,216.841858 80.003738,216.655090 79.997986,216.188080 
	C80.165863,215.843033 80.334686,215.778244 80.758057,215.807144 
	C80.824844,216.184982 80.637093,216.469116 80.231339,216.890945 
z"></path>
<path fill="#080C10" opacity="1.000000" stroke="none" d="
M140.717651,174.128784 
	C140.814026,174.365906 140.705475,174.717438 140.296600,175.042603 
	C140.096939,174.710800 140.269089,174.453125 140.717651,174.128784 
z"></path>
<path fill="#0B0E13" opacity="1.000000" stroke="none" d="
M153.886871,174.775238 
	C153.642731,174.867828 153.286118,174.742661 152.957092,174.307037 
	C153.305435,174.102585 153.568680,174.289551 153.886871,174.775238 
z"></path>
<path fill="#1C2128" opacity="1.000000" stroke="none" d="
M153.322556,40.009129 
	C158.032410,47.526363 162.742264,55.043594 167.568710,62.746906 
	C164.938522,63.439625 163.081528,64.234657 161.178574,64.366577 
	C157.144547,64.646210 152.941330,65.544167 151.706116,59.432732 
	C151.089661,56.382736 148.600601,53.711227 146.553101,50.166565 
	C144.226257,54.781006 142.257019,58.686295 140.036148,63.090580 
	C135.895233,62.408493 131.064392,66.649879 126.203575,62.732601 
	C129.989944,56.507614 133.682724,50.436478 138.055847,44.189346 
	C139.990585,44.342426 141.257858,44.629375 142.496902,45.008556 
	C146.069733,46.101948 149.711502,47.598454 150.276154,41.573166 
	C150.333435,40.962025 152.262253,40.526276 153.322556,40.009129 
z"></path>
<path fill="#171B21" opacity="1.000000" stroke="none" d="
M153.215820,39.660233 
	C152.262253,40.526276 150.333435,40.962025 150.276154,41.573166 
	C149.711502,47.598454 146.069733,46.101948 142.496902,45.008556 
	C141.257858,44.629375 139.990585,44.342426 138.337036,43.996185 
	C140.709198,39.159229 143.480530,34.339432 146.650726,28.825920 
	C149.055710,32.730507 151.082397,36.020920 153.215820,39.660233 
z"></path>
<path fill="#1A1F25" opacity="1.000000" stroke="none" d="
M153.732086,76.215515 
	C153.880463,76.560188 153.689972,76.756294 153.225128,76.940094 
	C153.172546,76.713005 153.320007,76.426056 153.732086,76.215515 
z"></path>
<path fill="#1A1F25" opacity="1.000000" stroke="none" d="
M140.866516,76.718712 
	C140.587601,76.922859 140.306763,76.838432 139.643082,76.533707 
	C139.794998,76.352325 140.329788,76.391228 140.866516,76.718712 
z"></path>
<path fill="#1B2025" opacity="1.000000" stroke="none" d="
M99.996063,216.043671 
	C102.136650,215.982941 104.279060,215.832840 106.417511,215.876602 
	C116.942879,216.091919 122.156395,223.325699 118.766159,233.202164 
	C117.349525,237.329102 114.025749,239.494736 109.800270,239.961761 
	C106.860634,240.286667 103.866096,240.114746 100.308777,239.833862 
	C99.414619,239.319580 99.107773,239.136230 98.800926,238.952866 
	C98.755623,232.612640 98.710320,226.272400 99.055931,219.276672 
	C99.629913,217.761993 99.812988,216.902832 99.996063,216.043671 
z"></path>
<path fill="#0B0E13" opacity="1.000000" stroke="none" d="
M99.601311,216.060913 
	C99.812988,216.902832 99.629913,217.761993 99.180481,218.824432 
	C99.011604,218.044540 99.109085,217.061356 99.601311,216.060913 
z"></path>
<path fill="#0B0E13" opacity="1.000000" stroke="none" d="
M98.783676,239.291107 
	C99.107773,239.136230 99.414619,239.319580 99.857559,239.736115 
	C99.584564,239.855972 99.175491,239.742661 98.783676,239.291107 
z"></path>
<path fill="#1E2328" opacity="1.000000" stroke="none" d="
M31.974619,226.927597 
	C31.526093,227.299179 31.077568,227.670761 30.057392,227.789047 
	C27.321119,227.977722 25.156498,228.419693 22.991879,228.861664 
	C22.244530,228.909149 21.497181,228.956619 20.366003,228.487000 
	C19.986164,223.953857 19.990154,219.937790 19.994144,215.921738 
	C22.703899,215.912247 25.413654,215.902771 28.640917,216.349976 
	C30.143667,217.176880 31.128910,217.547073 32.114151,217.917267 
	C32.114155,217.917267 32.010612,217.986923 32.034645,218.280228 
	C32.643246,219.386185 33.227810,220.198822 33.812378,221.011475 
	C33.885593,221.761185 33.958805,222.510895 33.607098,223.700256 
	C32.779659,225.069153 32.377140,225.998367 31.974619,226.927597 
z"></path>
<path fill="#2A2D30" opacity="1.000000" stroke="none" d="
M19.560093,215.892914 
	C19.990154,219.937790 19.986164,223.953857 19.994938,228.426208 
	C19.532789,228.813858 18.640860,228.733871 18.642374,228.678177 
	C18.758556,224.405579 18.945017,220.134918 19.560093,215.892914 
z"></path>
<path fill="#2A2D30" opacity="1.000000" stroke="none" d="
M23.396336,228.947052 
	C25.156498,228.419693 27.321119,227.977722 29.756527,227.803345 
	C27.951809,228.391434 25.876301,228.711945 23.396336,228.947052 
z"></path>
<path fill="#2A2D30" opacity="1.000000" stroke="none" d="
M31.985897,217.623962 
	C31.128910,217.547073 30.143667,217.176880 29.074736,216.477448 
	C29.946579,216.542374 30.902111,216.936523 31.985897,217.623962 
z"></path>
<path fill="#2A2D30" opacity="1.000000" stroke="none" d="
M33.834290,220.694855 
	C33.227810,220.198822 32.643246,219.386185 32.070793,218.229370 
	C32.674007,218.716202 33.265106,219.547226 33.834290,220.694855 
z"></path>
<path fill="#2A2D30" opacity="1.000000" stroke="none" d="
M32.264709,226.819550 
	C32.377140,225.998367 32.779659,225.069153 33.497665,224.064377 
	C33.393700,224.896393 32.974251,225.803955 32.264709,226.819550 
z"></path>
<path fill="#13171C" opacity="1.000000" stroke="none" d="
M61.577194,215.880493 
	C61.039848,221.091095 63.411236,222.634079 68.281029,222.092911 
	C70.049530,221.896378 71.934708,222.749771 73.881393,223.500366 
	C69.555084,223.876587 65.114021,223.876587 59.801456,223.876587 
	C60.288555,220.977417 60.719902,218.410095 61.577194,215.880493 
z"></path>
<path fill="#1B2025" opacity="1.000000" stroke="none" d="
M184.923599,231.979980 
	C187.608231,225.767212 190.292862,219.554428 193.320923,212.546906 
	C196.557281,219.973877 199.415665,226.533401 202.507324,233.628326 
	C196.838562,233.628326 191.912506,233.628326 186.464111,233.312408 
	C185.602386,232.657654 185.263000,232.318817 184.923599,231.979980 
z"></path>
<path fill="#393D3F" opacity="1.000000" stroke="none" d="
M184.717331,232.160095 
	C185.263000,232.318817 185.602386,232.657654 186.009537,233.228424 
	C185.555222,233.086960 185.033142,232.713593 184.717331,232.160095 
z"></path>
</svg>